<svg width="200" height="200" viewBox="0 0 200 200" fill="none" xmlns="http://www.w3.org/2000/svg">
<g clip-path="url(#clip0_1006_1027)">
<path d="M0 200L0 196H4V200H0Z" fill="#E5E7EB"/>
<path d="M0 180L0 176H4L4 180H0Z" fill="#E5E7EB"/>
<path d="M0 160L0 156H4V160H0Z" fill="#E5E7EB"/>
<path d="M0 140L0 136H4V140H0Z" fill="#E5E7EB"/>
<path d="M0 120L0 116H4V120H0Z" fill="#E5E7EB"/>
<path d="M0 100L0 96H4V100H0Z" fill="#E5E7EB"/>
<path d="M0 80L0 76H4L4 80H0Z" fill="#E5E7EB"/>
<path d="M0 60L0 56H4V60H0Z" fill="#E5E7EB"/>
<path d="M0 40L0 36H4V40H0Z" fill="#E5E7EB"/>
<path d="M0 20L0 16H4L4 20H0Z" fill="#E5E7EB"/>
<path d="M0 0L0 -4H4V0H0Z" fill="#E5E7EB"/>
<path d="M0 -20L0 -24H4V-20H0Z" fill="#E5E7EB"/>
<path d="M0 -40L0 -44H4V-40H0Z" fill="#E5E7EB"/>
<path d="M0 -60L0 -64H4V-60H0Z" fill="#E5E7EB"/>
<path d="M0 -80L0 -84H4L4 -80H0Z" fill="#E5E7EB"/>
<path d="M0 -100L0 -104H4V-100H0Z" fill="#E5E7EB"/>
<path d="M0 -120L0 -124H4V-120H0Z" fill="#E5E7EB"/>
<path d="M0 -140L0 -144H4L4 -140H0Z" fill="#E5E7EB"/>
<path d="M0 -160L0 -164H4V-160H0Z" fill="#E5E7EB"/>
<path d="M0 -180L0 -184H4V-180H0Z" fill="#E5E7EB"/>
<path d="M0 -200L0 -204H4V-200H0Z" fill="#E5E7EB"/>
<path d="M20 200V196H24V200H20Z" fill="#E5E7EB"/>
<path d="M20 180V176H24V180H20Z" fill="#E5E7EB"/>
<path d="M20 160V156H24V160H20Z" fill="#E5E7EB"/>
<path d="M20 140V136H24V140H20Z" fill="#E5E7EB"/>
<path d="M20 120V116H24V120H20Z" fill="#E5E7EB"/>
<path d="M20 100V96H24V100H20Z" fill="#E5E7EB"/>
<path d="M20 80V76H24V80H20Z" fill="#E5E7EB"/>
<path d="M20 60V56H24V60H20Z" fill="#E5E7EB"/>
<path d="M20 40V36H24V40H20Z" fill="#E5E7EB"/>
<path d="M20 20V16H24V20H20Z" fill="#E5E7EB"/>
<path d="M20 0L20 -4H24L24 0H20Z" fill="#E5E7EB"/>
<path d="M20 -20V-24H24V-20H20Z" fill="#E5E7EB"/>
<path d="M20 -40V-44H24V-40H20Z" fill="#E5E7EB"/>
<path d="M20 -60L20 -64H24L24 -60H20Z" fill="#E5E7EB"/>
<path d="M20 -80V-84H24V-80H20Z" fill="#E5E7EB"/>
<path d="M20 -100V-104H24V-100H20Z" fill="#E5E7EB"/>
<path d="M20 -120V-124H24V-120H20Z" fill="#E5E7EB"/>
<path d="M20 -140V-144H24V-140H20Z" fill="#E5E7EB"/>
<path d="M20 -160V-164H24V-160H20Z" fill="#E5E7EB"/>
<path d="M20 -180V-184H24V-180H20Z" fill="#E5E7EB"/>
<path d="M20 -200V-204H24V-200H20Z" fill="#E5E7EB"/>
<path d="M40 200V196H44V200H40Z" fill="#E5E7EB"/>
<path d="M40 180V176H44V180H40Z" fill="#E5E7EB"/>
<path d="M40 160V156H44V160H40Z" fill="#E5E7EB"/>
<path d="M40 140V136H44V140H40Z" fill="#E5E7EB"/>
<path d="M40 120V116H44V120H40Z" fill="#E5E7EB"/>
<path d="M40 100V96H44V100H40Z" fill="#E5E7EB"/>
<path d="M40 80V76H44V80H40Z" fill="#E5E7EB"/>
<path d="M40 60V56H44V60H40Z" fill="#E5E7EB"/>
<path d="M40 40V36H44V40H40Z" fill="#E5E7EB"/>
<path d="M40 20V16H44V20H40Z" fill="#E5E7EB"/>
<path d="M40 0V-4H44V0H40Z" fill="#E5E7EB"/>
<path d="M40 -20V-24H44V-20H40Z" fill="#E5E7EB"/>
<path d="M40 -40V-44H44V-40H40Z" fill="#E5E7EB"/>
<path d="M40 -60V-64H44V-60H40Z" fill="#E5E7EB"/>
<path d="M40 -80V-84H44V-80H40Z" fill="#E5E7EB"/>
<path d="M40 -100V-104H44V-100H40Z" fill="#E5E7EB"/>
<path d="M40 -120V-124H44V-120H40Z" fill="#E5E7EB"/>
<path d="M40 -140V-144H44V-140H40Z" fill="#E5E7EB"/>
<path d="M40 -160V-164H44V-160H40Z" fill="#E5E7EB"/>
<path d="M40 -180V-184H44V-180H40Z" fill="#E5E7EB"/>
<path d="M40 -200V-204H44V-200H40Z" fill="#E5E7EB"/>
<path d="M60 200V196H64V200H60Z" fill="#E5E7EB"/>
<path d="M60 180V176H64V180H60Z" fill="#E5E7EB"/>
<path d="M60 160V156H64V160H60Z" fill="#E5E7EB"/>
<path d="M60 140V136H64V140H60Z" fill="#E5E7EB"/>
<path d="M60 120V116H64V120H60Z" fill="#E5E7EB"/>
<path d="M60 100V96H64V100H60Z" fill="#E5E7EB"/>
<path d="M60 80V76H64V80H60Z" fill="#E5E7EB"/>
<path d="M60 60V56H64V60H60Z" fill="#E5E7EB"/>
<path d="M60 40V36H64V40H60Z" fill="#E5E7EB"/>
<path d="M60 20V16H64V20H60Z" fill="#E5E7EB"/>
<path d="M60 0V-4H64V0H60Z" fill="#E5E7EB"/>
<path d="M60 -20V-24H64V-20H60Z" fill="#E5E7EB"/>
<path d="M60 -40V-44H64V-40H60Z" fill="#E5E7EB"/>
<path d="M60 -60V-64H64V-60H60Z" fill="#E5E7EB"/>
<path d="M60 -80V-84H64V-80H60Z" fill="#E5E7EB"/>
<path d="M60 -100V-104H64V-100H60Z" fill="#E5E7EB"/>
<path d="M60 -120V-124H64V-120H60Z" fill="#E5E7EB"/>
<path d="M60 -140V-144H64V-140H60Z" fill="#E5E7EB"/>
<path d="M60 -160V-164H64V-160H60Z" fill="#E5E7EB"/>
<path d="M60 -180V-184H64V-180H60Z" fill="#E5E7EB"/>
<path d="M60 -200V-204H64V-200H60Z" fill="#E5E7EB"/>
<path d="M80 200V196H84V200H80Z" fill="#E5E7EB"/>
<path d="M80 180V176H84V180H80Z" fill="#E5E7EB"/>
<path d="M80 160V156H84V160H80Z" fill="#E5E7EB"/>
<path d="M80 140V136H84V140H80Z" fill="#E5E7EB"/>
<path d="M80 120V116H84V120H80Z" fill="#E5E7EB"/>
<path d="M80 100V96H84V100H80Z" fill="#E5E7EB"/>
<path d="M80 80V76H84V80H80Z" fill="#E5E7EB"/>
<path d="M80 60V56H84V60H80Z" fill="#E5E7EB"/>
<path d="M80 40V36H84V40H80Z" fill="#E5E7EB"/>
<path d="M80 20V16H84V20H80Z" fill="#E5E7EB"/>
<path d="M80 0V-4H84V0H80Z" fill="#E5E7EB"/>
<path d="M80 -20V-24H84V-20H80Z" fill="#E5E7EB"/>
<path d="M80 -40V-44H84V-40H80Z" fill="#E5E7EB"/>
<path d="M80 -60V-64H84V-60H80Z" fill="#E5E7EB"/>
<path d="M80 -80V-84H84V-80H80Z" fill="#E5E7EB"/>
<path d="M80 -100V-104H84V-100H80Z" fill="#E5E7EB"/>
<path d="M80 -120V-124H84V-120H80Z" fill="#E5E7EB"/>
<path d="M80 -140V-144H84V-140H80Z" fill="#E5E7EB"/>
<path d="M80 -160V-164H84V-160H80Z" fill="#E5E7EB"/>
<path d="M80 -180V-184H84V-180H80Z" fill="#E5E7EB"/>
<path d="M80 -200V-204H84V-200H80Z" fill="#E5E7EB"/>
<path d="M100 200V196H104V200H100Z" fill="#E5E7EB"/>
<path d="M100 180V176H104V180H100Z" fill="#E5E7EB"/>
<path d="M100 160V156H104V160H100Z" fill="#E5E7EB"/>
<path d="M100 140V136H104V140H100Z" fill="#E5E7EB"/>
<path d="M100 120V116H104V120H100Z" fill="#E5E7EB"/>
<path d="M100 100V96H104V100H100Z" fill="#E5E7EB"/>
<path d="M100 80V76H104V80H100Z" fill="#E5E7EB"/>
<path d="M100 60V56H104V60H100Z" fill="#E5E7EB"/>
<path d="M100 40V36H104V40H100Z" fill="#E5E7EB"/>
<path d="M100 20V16H104V20H100Z" fill="#E5E7EB"/>
<path d="M100 0V-4H104V0H100Z" fill="#E5E7EB"/>
<path d="M100 -20V-24H104V-20H100Z" fill="#E5E7EB"/>
<path d="M100 -40V-44H104V-40H100Z" fill="#E5E7EB"/>
<path d="M100 -60V-64H104V-60H100Z" fill="#E5E7EB"/>
<path d="M100 -80V-84H104V-80H100Z" fill="#E5E7EB"/>
<path d="M100 -100V-104H104V-100H100Z" fill="#E5E7EB"/>
<path d="M100 -120V-124H104V-120H100Z" fill="#E5E7EB"/>
<path d="M100 -140V-144H104V-140H100Z" fill="#E5E7EB"/>
<path d="M100 -160V-164H104V-160H100Z" fill="#E5E7EB"/>
<path d="M100 -180V-184H104V-180H100Z" fill="#E5E7EB"/>
<path d="M100 -200V-204H104V-200H100Z" fill="#E5E7EB"/>
<path d="M120 200V196H124V200H120Z" fill="#E5E7EB"/>
<path d="M120 180V176H124V180H120Z" fill="#E5E7EB"/>
<path d="M120 160V156H124V160H120Z" fill="#E5E7EB"/>
<path d="M120 140V136H124V140H120Z" fill="#E5E7EB"/>
<path d="M120 120V116H124V120H120Z" fill="#E5E7EB"/>
<path d="M120 100V96H124V100H120Z" fill="#E5E7EB"/>
<path d="M120 80V76H124V80H120Z" fill="#E5E7EB"/>
<path d="M120 60V56H124V60H120Z" fill="#E5E7EB"/>
<path d="M120 40V36H124V40H120Z" fill="#E5E7EB"/>
<path d="M120 20V16H124V20H120Z" fill="#E5E7EB"/>
<path d="M120 0V-4H124V0H120Z" fill="#E5E7EB"/>
<path d="M120 -20V-24H124V-20H120Z" fill="#E5E7EB"/>
<path d="M120 -40V-44H124V-40H120Z" fill="#E5E7EB"/>
<path d="M120 -60V-64H124V-60H120Z" fill="#E5E7EB"/>
<path d="M120 -80V-84H124V-80H120Z" fill="#E5E7EB"/>
<path d="M120 -100V-104H124V-100H120Z" fill="#E5E7EB"/>
<path d="M120 -120V-124H124V-120H120Z" fill="#E5E7EB"/>
<path d="M120 -140V-144H124V-140H120Z" fill="#E5E7EB"/>
<path d="M120 -160V-164H124V-160H120Z" fill="#E5E7EB"/>
<path d="M120 -180V-184H124V-180H120Z" fill="#E5E7EB"/>
<path d="M120 -200V-204H124V-200H120Z" fill="#E5E7EB"/>
<path d="M140 200V196H144V200H140Z" fill="#E5E7EB"/>
<path d="M140 180V176H144V180H140Z" fill="#E5E7EB"/>
<path d="M140 160V156H144V160H140Z" fill="#E5E7EB"/>
<path d="M140 140V136H144V140H140Z" fill="#E5E7EB"/>
<path d="M140 120V116H144V120H140Z" fill="#E5E7EB"/>
<path d="M140 100V96H144V100H140Z" fill="#E5E7EB"/>
<path d="M140 80V76H144V80H140Z" fill="#E5E7EB"/>
<path d="M140 60V56H144V60H140Z" fill="#E5E7EB"/>
<path d="M140 40V36H144V40H140Z" fill="#E5E7EB"/>
<path d="M140 20V16H144V20H140Z" fill="#E5E7EB"/>
<path d="M140 0V-4H144V0H140Z" fill="#E5E7EB"/>
<path d="M140 -20V-24H144V-20H140Z" fill="#E5E7EB"/>
<path d="M140 -40V-44H144V-40H140Z" fill="#E5E7EB"/>
<path d="M140 -60V-64H144V-60H140Z" fill="#E5E7EB"/>
<path d="M140 -80V-84H144V-80H140Z" fill="#E5E7EB"/>
<path d="M140 -100V-104H144V-100H140Z" fill="#E5E7EB"/>
<path d="M140 -120V-124H144V-120H140Z" fill="#E5E7EB"/>
<path d="M140 -140V-144H144V-140H140Z" fill="#E5E7EB"/>
<path d="M140 -160V-164H144V-160H140Z" fill="#E5E7EB"/>
<path d="M140 -180V-184H144V-180H140Z" fill="#E5E7EB"/>
<path d="M140 -200V-204H144V-200H140Z" fill="#E5E7EB"/>
<path d="M160 200V196H164V200H160Z" fill="#E5E7EB"/>
<path d="M160 180V176H164V180H160Z" fill="#E5E7EB"/>
<path d="M160 160V156H164V160H160Z" fill="#E5E7EB"/>
<path d="M160 140V136H164V140H160Z" fill="#E5E7EB"/>
<path d="M160 120V116H164V120H160Z" fill="#E5E7EB"/>
<path d="M160 100V96H164V100H160Z" fill="#E5E7EB"/>
<path d="M160 80V76H164V80H160Z" fill="#E5E7EB"/>
<path d="M160 60V56H164V60H160Z" fill="#E5E7EB"/>
<path d="M160 40V36H164V40H160Z" fill="#E5E7EB"/>
<path d="M160 20V16H164V20H160Z" fill="#E5E7EB"/>
<path d="M160 0V-4H164V0H160Z" fill="#E5E7EB"/>
<path d="M160 -20V-24H164V-20H160Z" fill="#E5E7EB"/>
<path d="M160 -40V-44H164V-40H160Z" fill="#E5E7EB"/>
<path d="M160 -60V-64H164V-60H160Z" fill="#E5E7EB"/>
<path d="M160 -80V-84H164V-80H160Z" fill="#E5E7EB"/>
<path d="M160 -100V-104H164V-100H160Z" fill="#E5E7EB"/>
<path d="M160 -120V-124H164V-120H160Z" fill="#E5E7EB"/>
<path d="M160 -140V-144H164V-140H160Z" fill="#E5E7EB"/>
<path d="M160 -160V-164H164V-160H160Z" fill="#E5E7EB"/>
<path d="M160 -180V-184H164V-180H160Z" fill="#E5E7EB"/>
<path d="M160 -200V-204H164V-200H160Z" fill="#E5E7EB"/>
<path d="M180 200V196H184V200H180Z" fill="#E5E7EB"/>
<path d="M180 180V176H184V180H180Z" fill="#E5E7EB"/>
<path d="M180 160V156H184V160H180Z" fill="#E5E7EB"/>
<path d="M180 140V136H184V140H180Z" fill="#E5E7EB"/>
<path d="M180 120V116H184V120H180Z" fill="#E5E7EB"/>
<path d="M180 100V96H184V100H180Z" fill="#E5E7EB"/>
<path d="M180 80V76H184V80H180Z" fill="#E5E7EB"/>
<path d="M180 60V56H184V60H180Z" fill="#E5E7EB"/>
<path d="M180 40V36H184V40H180Z" fill="#E5E7EB"/>
<path d="M180 20V16H184V20H180Z" fill="#E5E7EB"/>
<path d="M180 0V-4H184V0H180Z" fill="#E5E7EB"/>
<path d="M180 -20V-24H184V-20H180Z" fill="#E5E7EB"/>
<path d="M180 -40V-44H184V-40H180Z" fill="#E5E7EB"/>
<path d="M180 -60V-64H184V-60H180Z" fill="#E5E7EB"/>
<path d="M180 -80V-84H184V-80H180Z" fill="#E5E7EB"/>
<path d="M180 -100V-104H184V-100H180Z" fill="#E5E7EB"/>
<path d="M180 -120V-124H184V-120H180Z" fill="#E5E7EB"/>
<path d="M180 -140V-144H184V-140H180Z" fill="#E5E7EB"/>
<path d="M180 -160V-164H184V-160H180Z" fill="#E5E7EB"/>
<path d="M180 -180V-184H184V-180H180Z" fill="#E5E7EB"/>
<path d="M180 -200V-204H184V-200H180Z" fill="#E5E7EB"/>
<path d="M200 200V196H204V200H200Z" fill="#E5E7EB"/>
<path d="M200 180V176H204V180H200Z" fill="#E5E7EB"/>
<path d="M200 160V156H204V160H200Z" fill="#E5E7EB"/>
<path d="M200 140V136H204V140H200Z" fill="#E5E7EB"/>
<path d="M200 120V116H204V120H200Z" fill="#E5E7EB"/>
<path d="M200 100V96H204V100H200Z" fill="#E5E7EB"/>
<path d="M200 80V76H204V80H200Z" fill="#E5E7EB"/>
<path d="M200 60V56H204V60H200Z" fill="#E5E7EB"/>
<path d="M200 40V36H204V40H200Z" fill="#E5E7EB"/>
<path d="M200 20V16H204V20H200Z" fill="#E5E7EB"/>
<path d="M200 0V-4H204V0H200Z" fill="#E5E7EB"/>
<path d="M200 -20V-24H204V-20H200Z" fill="#E5E7EB"/>
<path d="M200 -40V-44H204V-40H200Z" fill="#E5E7EB"/>
<path d="M200 -60V-64H204V-60H200Z" fill="#E5E7EB"/>
<path d="M200 -80V-84H204V-80H200Z" fill="#E5E7EB"/>
<path d="M200 -100V-104H204V-100H200Z" fill="#E5E7EB"/>
<path d="M200 -120V-124H204V-120H200Z" fill="#E5E7EB"/>
<path d="M200 -140V-144H204V-140H200Z" fill="#E5E7EB"/>
<path d="M200 -160V-164H204V-160H200Z" fill="#E5E7EB"/>
<path d="M200 -180V-184H204V-180H200Z" fill="#E5E7EB"/>
<path d="M200 -200V-204H204V-200H200Z" fill="#E5E7EB"/>
<path d="M220 200V196H224V200H220Z" fill="#E5E7EB"/>
<path d="M220 180V176H224V180H220Z" fill="#E5E7EB"/>
<path d="M220 160V156H224V160H220Z" fill="#E5E7EB"/>
<path d="M220 140V136H224V140H220Z" fill="#E5E7EB"/>
<path d="M220 120V116H224V120H220Z" fill="#E5E7EB"/>
<path d="M220 100V96H224V100H220Z" fill="#E5E7EB"/>
<path d="M220 80V76H224V80H220Z" fill="#E5E7EB"/>
<path d="M220 60V56H224V60H220Z" fill="#E5E7EB"/>
<path d="M220 40V36H224V40H220Z" fill="#E5E7EB"/>
<path d="M220 20V16H224V20H220Z" fill="#E5E7EB"/>
<path d="M220 0V-4H224V0H220Z" fill="#E5E7EB"/>
<path d="M220 -20V-24H224V-20H220Z" fill="#E5E7EB"/>
<path d="M220 -40V-44H224V-40H220Z" fill="#E5E7EB"/>
<path d="M220 -60V-64H224V-60H220Z" fill="#E5E7EB"/>
<path d="M220 -80V-84H224V-80H220Z" fill="#E5E7EB"/>
<path d="M220 -100V-104H224V-100H220Z" fill="#E5E7EB"/>
<path d="M220 -120V-124H224V-120H220Z" fill="#E5E7EB"/>
<path d="M220 -140V-144H224V-140H220Z" fill="#E5E7EB"/>
<path d="M220 -160V-164H224V-160H220Z" fill="#E5E7EB"/>
<path d="M220 -180V-184H224V-180H220Z" fill="#E5E7EB"/>
<path d="M220 -200V-204H224V-200H220Z" fill="#E5E7EB"/>
<path d="M240 200V196H244V200H240Z" fill="#E5E7EB"/>
<path d="M240 180V176H244V180H240Z" fill="#E5E7EB"/>
<path d="M240 160V156H244V160H240Z" fill="#E5E7EB"/>
<path d="M240 140V136H244V140H240Z" fill="#E5E7EB"/>
<path d="M240 120V116H244V120H240Z" fill="#E5E7EB"/>
<path d="M240 100V96H244V100H240Z" fill="#E5E7EB"/>
<path d="M240 80V76H244V80H240Z" fill="#E5E7EB"/>
<path d="M240 60V56H244V60H240Z" fill="#E5E7EB"/>
<path d="M240 40V36H244V40H240Z" fill="#E5E7EB"/>
<path d="M240 20V16H244V20H240Z" fill="#E5E7EB"/>
<path d="M240 0V-4H244V0H240Z" fill="#E5E7EB"/>
<path d="M240 -20V-24H244V-20H240Z" fill="#E5E7EB"/>
<path d="M240 -40V-44H244V-40H240Z" fill="#E5E7EB"/>
<path d="M240 -60V-64H244V-60H240Z" fill="#E5E7EB"/>
<path d="M240 -80V-84H244V-80H240Z" fill="#E5E7EB"/>
<path d="M240 -100V-104H244V-100H240Z" fill="#E5E7EB"/>
<path d="M240 -120V-124H244V-120H240Z" fill="#E5E7EB"/>
<path d="M240 -140V-144H244V-140H240Z" fill="#E5E7EB"/>
<path d="M240 -160V-164H244V-160H240Z" fill="#E5E7EB"/>
<path d="M240 -180V-184H244V-180H240Z" fill="#E5E7EB"/>
<path d="M240 -200V-204H244V-200H240Z" fill="#E5E7EB"/>
<path d="M260 200V196H264V200H260Z" fill="#E5E7EB"/>
<path d="M260 180V176L264 176V180L260 180Z" fill="#E5E7EB"/>
<path d="M260 160V156H264V160H260Z" fill="#E5E7EB"/>
<path d="M260 140V136H264V140H260Z" fill="#E5E7EB"/>
<path d="M260 120V116H264V120H260Z" fill="#E5E7EB"/>
<path d="M260 100V96H264V100H260Z" fill="#E5E7EB"/>
<path d="M260 80V76H264V80H260Z" fill="#E5E7EB"/>
<path d="M260 60V56H264V60H260Z" fill="#E5E7EB"/>
<path d="M260 40V36H264V40H260Z" fill="#E5E7EB"/>
<path d="M260 20V16H264V20H260Z" fill="#E5E7EB"/>
<path d="M260 0V-4H264V0H260Z" fill="#E5E7EB"/>
<path d="M260 -20V-24H264V-20H260Z" fill="#E5E7EB"/>
<path d="M260 -40V-44H264V-40H260Z" fill="#E5E7EB"/>
<path d="M260 -60V-64H264V-60H260Z" fill="#E5E7EB"/>
<path d="M260 -80V-84H264V-80H260Z" fill="#E5E7EB"/>
<path d="M260 -100V-104H264V-100H260Z" fill="#E5E7EB"/>
<path d="M260 -120V-124H264V-120H260Z" fill="#E5E7EB"/>
<path d="M260 -140V-144H264V-140H260Z" fill="#E5E7EB"/>
<path d="M260 -160V-164H264V-160H260Z" fill="#E5E7EB"/>
<path d="M260 -180V-184H264V-180H260Z" fill="#E5E7EB"/>
<path d="M260 -200V-204H264V-200H260Z" fill="#E5E7EB"/>
<path d="M280 200V196H284V200H280Z" fill="#E5E7EB"/>
<path d="M280 180V176H284V180H280Z" fill="#E5E7EB"/>
<path d="M280 160V156H284V160H280Z" fill="#E5E7EB"/>
<path d="M280 140V136H284V140H280Z" fill="#E5E7EB"/>
<path d="M280 120V116H284V120H280Z" fill="#E5E7EB"/>
<path d="M280 100V96H284V100H280Z" fill="#E5E7EB"/>
<path d="M280 80V76H284V80H280Z" fill="#E5E7EB"/>
<path d="M280 60V56H284V60H280Z" fill="#E5E7EB"/>
<path d="M280 40V36H284V40H280Z" fill="#E5E7EB"/>
<path d="M280 20V16H284V20H280Z" fill="#E5E7EB"/>
<path d="M280 0V-4H284V0H280Z" fill="#E5E7EB"/>
<path d="M280 -20V-24H284V-20H280Z" fill="#E5E7EB"/>
<path d="M280 -40V-44H284V-40H280Z" fill="#E5E7EB"/>
<path d="M280 -60V-64H284V-60H280Z" fill="#E5E7EB"/>
<path d="M280 -80V-84H284V-80H280Z" fill="#E5E7EB"/>
<path d="M280 -100V-104H284V-100H280Z" fill="#E5E7EB"/>
<path d="M280 -120V-124H284V-120H280Z" fill="#E5E7EB"/>
<path d="M280 -140V-144H284V-140H280Z" fill="#E5E7EB"/>
<path d="M280 -160V-164H284V-160H280Z" fill="#E5E7EB"/>
<path d="M280 -180V-184H284V-180H280Z" fill="#E5E7EB"/>
<path d="M280 -200V-204H284V-200H280Z" fill="#E5E7EB"/>
<path d="M300 200V196H304V200H300Z" fill="#E5E7EB"/>
<path d="M300 180V176H304V180H300Z" fill="#E5E7EB"/>
<path d="M300 160V156H304V160H300Z" fill="#E5E7EB"/>
<path d="M300 140V136H304V140H300Z" fill="#E5E7EB"/>
<path d="M300 120V116H304V120H300Z" fill="#E5E7EB"/>
<path d="M300 100V96H304V100H300Z" fill="#E5E7EB"/>
<path d="M300 80V76H304V80H300Z" fill="#E5E7EB"/>
<path d="M300 60V56H304V60H300Z" fill="#E5E7EB"/>
<path d="M300 40V36H304V40H300Z" fill="#E5E7EB"/>
<path d="M300 20V16H304V20H300Z" fill="#E5E7EB"/>
<path d="M300 0V-4H304V0H300Z" fill="#E5E7EB"/>
<path d="M300 -20V-24H304V-20H300Z" fill="#E5E7EB"/>
<path d="M300 -40V-44H304V-40H300Z" fill="#E5E7EB"/>
<path d="M300 -60V-64H304V-60H300Z" fill="#E5E7EB"/>
<path d="M300 -80V-84H304V-80H300Z" fill="#E5E7EB"/>
<path d="M300 -100V-104H304V-100H300Z" fill="#E5E7EB"/>
<path d="M300 -120V-124H304V-120H300Z" fill="#E5E7EB"/>
<path d="M300 -140V-144H304V-140H300Z" fill="#E5E7EB"/>
<path d="M300 -160V-164H304V-160H300Z" fill="#E5E7EB"/>
<path d="M300 -180V-184H304V-180H300Z" fill="#E5E7EB"/>
<path d="M300 -200V-204H304V-200H300Z" fill="#E5E7EB"/>
<path d="M320 200V196H324V200H320Z" fill="#E5E7EB"/>
<path d="M320 180V176H324V180H320Z" fill="#E5E7EB"/>
<path d="M320 160V156H324V160H320Z" fill="#E5E7EB"/>
<path d="M320 140V136H324V140H320Z" fill="#E5E7EB"/>
<path d="M320 120V116H324V120H320Z" fill="#E5E7EB"/>
<path d="M320 100V96H324V100H320Z" fill="#E5E7EB"/>
<path d="M320 80V76H324V80H320Z" fill="#E5E7EB"/>
<path d="M320 60V56H324V60H320Z" fill="#E5E7EB"/>
<path d="M320 40V36H324V40H320Z" fill="#E5E7EB"/>
<path d="M320 20V16H324V20H320Z" fill="#E5E7EB"/>
<path d="M320 0V-4H324V0H320Z" fill="#E5E7EB"/>
<path d="M320 -20V-24H324V-20H320Z" fill="#E5E7EB"/>
<path d="M320 -40V-44H324V-40H320Z" fill="#E5E7EB"/>
<path d="M320 -60V-64H324V-60H320Z" fill="#E5E7EB"/>
<path d="M320 -80V-84H324V-80H320Z" fill="#E5E7EB"/>
<path d="M320 -100V-104H324V-100H320Z" fill="#E5E7EB"/>
<path d="M320 -120V-124H324V-120H320Z" fill="#E5E7EB"/>
<path d="M320 -140V-144H324V-140H320Z" fill="#E5E7EB"/>
<path d="M320 -160V-164H324V-160H320Z" fill="#E5E7EB"/>
<path d="M320 -180V-184H324V-180H320Z" fill="#E5E7EB"/>
<path d="M320 -200V-204H324V-200H320Z" fill="#E5E7EB"/>
<path d="M340 200V196H344V200H340Z" fill="#E5E7EB"/>
<path d="M340 180V176H344V180H340Z" fill="#E5E7EB"/>
<path d="M340 160V156H344V160H340Z" fill="#E5E7EB"/>
<path d="M340 140V136H344V140H340Z" fill="#E5E7EB"/>
<path d="M340 120V116H344V120H340Z" fill="#E5E7EB"/>
<path d="M340 100V96H344V100H340Z" fill="#E5E7EB"/>
<path d="M340 80V76H344V80H340Z" fill="#E5E7EB"/>
<path d="M340 60V56H344V60H340Z" fill="#E5E7EB"/>
<path d="M340 40V36H344V40H340Z" fill="#E5E7EB"/>
<path d="M340 20V16H344V20H340Z" fill="#E5E7EB"/>
<path d="M340 0V-4H344V0H340Z" fill="#E5E7EB"/>
<path d="M340 -20V-24H344V-20H340Z" fill="#E5E7EB"/>
<path d="M340 -40V-44H344V-40H340Z" fill="#E5E7EB"/>
<path d="M340 -60V-64H344V-60H340Z" fill="#E5E7EB"/>
<path d="M340 -80V-84H344V-80H340Z" fill="#E5E7EB"/>
<path d="M340 -100V-104H344V-100H340Z" fill="#E5E7EB"/>
<path d="M340 -120V-124H344V-120H340Z" fill="#E5E7EB"/>
<path d="M340 -140V-144H344V-140H340Z" fill="#E5E7EB"/>
<path d="M340 -160V-164H344V-160H340Z" fill="#E5E7EB"/>
<path d="M340 -180V-184H344V-180H340Z" fill="#E5E7EB"/>
<path d="M340 -200V-204H344V-200H340Z" fill="#E5E7EB"/>
<path d="M360 200V196H364V200H360Z" fill="#E5E7EB"/>
<path d="M360 180V176H364V180H360Z" fill="#E5E7EB"/>
<path d="M360 160V156H364V160H360Z" fill="#E5E7EB"/>
<path d="M360 140V136H364V140H360Z" fill="#E5E7EB"/>
<path d="M360 120V116H364V120H360Z" fill="#E5E7EB"/>
<path d="M360 100V96H364V100H360Z" fill="#E5E7EB"/>
<path d="M360 80V76H364V80H360Z" fill="#E5E7EB"/>
<path d="M360 60V56H364V60H360Z" fill="#E5E7EB"/>
<path d="M360 40V36H364V40H360Z" fill="#E5E7EB"/>
<path d="M360 20V16H364V20H360Z" fill="#E5E7EB"/>
<path d="M360 0V-4H364V0H360Z" fill="#E5E7EB"/>
<path d="M360 -20V-24H364V-20H360Z" fill="#E5E7EB"/>
<path d="M360 -40V-44H364V-40H360Z" fill="#E5E7EB"/>
<path d="M360 -60V-64H364V-60H360Z" fill="#E5E7EB"/>
<path d="M360 -80V-84H364V-80H360Z" fill="#E5E7EB"/>
<path d="M360 -100V-104H364V-100H360Z" fill="#E5E7EB"/>
<path d="M360 -120V-124H364V-120H360Z" fill="#E5E7EB"/>
<path d="M360 -140V-144H364V-140H360Z" fill="#E5E7EB"/>
<path d="M360 -160V-164H364V-160H360Z" fill="#E5E7EB"/>
<path d="M360 -180V-184H364V-180H360Z" fill="#E5E7EB"/>
<path d="M360 -200V-204H364V-200H360Z" fill="#E5E7EB"/>
<path d="M380 200V196H384V200H380Z" fill="#E5E7EB"/>
<path d="M380 180V176H384V180H380Z" fill="#E5E7EB"/>
<path d="M380 160V156H384V160H380Z" fill="#E5E7EB"/>
<path d="M380 140V136H384V140H380Z" fill="#E5E7EB"/>
<path d="M380 120V116H384V120H380Z" fill="#E5E7EB"/>
<path d="M380 100V96H384V100H380Z" fill="#E5E7EB"/>
<path d="M380 80V76H384V80H380Z" fill="#E5E7EB"/>
<path d="M380 60V56H384V60H380Z" fill="#E5E7EB"/>
<path d="M380 40V36H384V40H380Z" fill="#E5E7EB"/>
<path d="M380 20V16H384V20H380Z" fill="#E5E7EB"/>
<path d="M380 0V-4H384V0H380Z" fill="#E5E7EB"/>
<path d="M380 -20V-24H384V-20H380Z" fill="#E5E7EB"/>
<path d="M380 -40V-44H384V-40H380Z" fill="#E5E7EB"/>
<path d="M380 -60V-64H384V-60H380Z" fill="#E5E7EB"/>
<path d="M380 -80V-84H384V-80H380Z" fill="#E5E7EB"/>
<path d="M380 -100V-104H384V-100H380Z" fill="#E5E7EB"/>
<path d="M380 -120V-124H384V-120H380Z" fill="#E5E7EB"/>
<path d="M380 -140V-144H384V-140H380Z" fill="#E5E7EB"/>
<path d="M380 -160V-164H384V-160H380Z" fill="#E5E7EB"/>
<path d="M380 -180V-184H384V-180H380Z" fill="#E5E7EB"/>
<path d="M380 -200V-204H384V-200H380Z" fill="#E5E7EB"/>
<path d="M400 200V196H404V200H400Z" fill="#E5E7EB"/>
<path d="M400 180V176H404V180H400Z" fill="#E5E7EB"/>
<path d="M400 160V156H404V160H400Z" fill="#E5E7EB"/>
<path d="M400 140V136H404V140H400Z" fill="#E5E7EB"/>
<path d="M400 120V116H404V120H400Z" fill="#E5E7EB"/>
<path d="M400 100V96H404V100H400Z" fill="#E5E7EB"/>
<path d="M400 80V76H404V80H400Z" fill="#E5E7EB"/>
<path d="M400 60V56H404V60H400Z" fill="#E5E7EB"/>
<path d="M400 40V36H404V40H400Z" fill="#E5E7EB"/>
<path d="M400 20V16H404V20H400Z" fill="#E5E7EB"/>
<path d="M400 0V-4H404V0H400Z" fill="#E5E7EB"/>
<path d="M400 -20V-24H404V-20H400Z" fill="#E5E7EB"/>
<path d="M400 -40V-44H404V-40H400Z" fill="#E5E7EB"/>
<path d="M400 -60V-64H404V-60H400Z" fill="#E5E7EB"/>
<path d="M400 -80V-84H404V-80H400Z" fill="#E5E7EB"/>
<path d="M400 -100V-104H404V-100H400Z" fill="#E5E7EB"/>
<path d="M400 -120V-124H404V-120H400Z" fill="#E5E7EB"/>
<path d="M400 -140V-144H404V-140H400Z" fill="#E5E7EB"/>
<path d="M400 -160V-164H404V-160H400Z" fill="#E5E7EB"/>
<path d="M400 -180V-184H404V-180H400Z" fill="#E5E7EB"/>
<path d="M400 -200V-204H404V-200H400Z" fill="#E5E7EB"/>
</g>
<defs>
<clipPath id="clip0_1006_1027">
<rect width="200" height="200" fill="white" transform="translate(0 200) rotate(-90)"/>
</clipPath>
</defs>
</svg>
